<?xml version="1.0" encoding="utf-8"?>
<!-- Generator: Adobe Illustrator 24.2.0, SVG Export Plug-In . SVG Version: 6.00 Build 0)  -->
<svg version="1.1" id="Layer_1" xmlns="http://www.w3.org/2000/svg" xmlns:xlink="http://www.w3.org/1999/xlink" x="0px" y="0px"
	 viewBox="0 0 1080 1920" style="enable-background:new 0 0 1080 1920;" xml:space="preserve">
<style type="text/css">
	.st0{clip-path:url(#SVGID_2_);fill:url(#SVGID_3_);}
	.st1{clip-path:url(#SVGID_2_);fill:none;stroke:#33B6BA;stroke-width:2.1759;stroke-miterlimit:10;}
	.st2{opacity:0.5;clip-path:url(#SVGID_2_);}
	.st3{opacity:0.8;fill:url(#SVGID_4_);}
	.st4{opacity:0.8;fill:url(#SVGID_5_);}
	.st5{opacity:0.8;fill:url(#SVGID_6_);}
	.st6{opacity:0.8;fill:url(#SVGID_7_);}
	.st7{opacity:0.8;fill:url(#SVGID_8_);}
	.st8{opacity:0.8;fill:url(#SVGID_9_);}
	.st9{opacity:0.8;fill:url(#SVGID_10_);}
	.st10{opacity:0.8;fill:url(#SVGID_11_);}
	.st11{opacity:0.8;fill:url(#SVGID_12_);}
	.st12{opacity:0.8;fill:url(#SVGID_13_);}
	.st13{opacity:0.8;fill:url(#SVGID_14_);}
	.st14{opacity:0.8;fill:url(#SVGID_15_);}
	.st15{opacity:0.8;fill:url(#SVGID_16_);}
	.st16{opacity:0.8;fill:url(#SVGID_17_);}
	.st17{opacity:0.8;fill:url(#SVGID_18_);}
	.st18{opacity:0.8;fill:url(#SVGID_19_);}
	.st19{opacity:0.8;fill:url(#SVGID_20_);}
	.st20{opacity:0.8;fill:url(#SVGID_21_);}
	.st21{opacity:0.8;fill:url(#SVGID_22_);}
	.st22{opacity:0.8;fill:url(#SVGID_23_);}
	.st23{opacity:0.8;fill:url(#SVGID_24_);}
	.st24{opacity:0.8;fill:url(#SVGID_25_);}
	.st25{opacity:0.8;fill:url(#SVGID_26_);}
	.st26{opacity:0.8;fill:url(#SVGID_27_);}
	.st27{opacity:0.8;fill:url(#SVGID_28_);}
	.st28{opacity:0.8;fill:url(#SVGID_29_);}
	.st29{opacity:0.8;fill:url(#SVGID_30_);}
	.st30{opacity:0.8;fill:url(#SVGID_31_);}
	.st31{opacity:0.8;fill:url(#SVGID_32_);}
	.st32{opacity:0.8;fill:url(#SVGID_33_);}
	.st33{opacity:0.8;fill:url(#SVGID_34_);}
	.st34{opacity:0.8;fill:url(#SVGID_35_);}
	.st35{opacity:0.8;fill:url(#SVGID_36_);}
	.st36{opacity:0.8;fill:url(#SVGID_37_);}
	.st37{opacity:0.8;fill:url(#SVGID_38_);}
	.st38{opacity:0.8;fill:url(#SVGID_39_);}
	.st39{opacity:0.8;fill:url(#SVGID_40_);}
	.st40{opacity:0.8;fill:url(#SVGID_41_);}
	.st41{opacity:0.8;fill:url(#SVGID_42_);}
	.st42{opacity:0.8;fill:url(#SVGID_43_);}
	.st43{opacity:0.8;fill:url(#SVGID_44_);}
	.st44{opacity:0.8;fill:url(#SVGID_45_);}
	.st45{opacity:0.8;fill:url(#SVGID_46_);}
	.st46{opacity:0.8;fill:url(#SVGID_47_);}
	.st47{opacity:0.8;fill:url(#SVGID_48_);}
	.st48{opacity:0.8;fill:url(#SVGID_49_);}
	.st49{opacity:0.8;fill:url(#SVGID_50_);}
	.st50{opacity:0.8;fill:url(#SVGID_51_);}
	.st51{opacity:0.8;fill:url(#SVGID_52_);}
	.st52{opacity:0.8;fill:url(#SVGID_53_);}
	.st53{opacity:0.8;fill:url(#SVGID_54_);}
	.st54{opacity:0.8;fill:url(#SVGID_55_);}
	.st55{opacity:0.8;fill:url(#SVGID_56_);}
	.st56{opacity:0.8;fill:url(#SVGID_57_);}
	.st57{opacity:0.8;fill:url(#SVGID_58_);}
	.st58{opacity:0.8;fill:url(#SVGID_59_);}
</style>
<g>
	<defs>
		<rect id="SVGID_1_" width="1080" height="1920"/>
	</defs>
	<clipPath id="SVGID_2_">
		<use xlink:href="#SVGID_1_"  style="overflow:visible;"/>
	</clipPath>
	
		<linearGradient id="SVGID_3_" gradientUnits="userSpaceOnUse" x1="-482.5635" y1="246.265" x2="1692.5129" y2="1764.4379" gradientTransform="matrix(0 1 -1 0 1500 420)">
		<stop  offset="0" style="stop-color:#00A48E"/>
		<stop  offset="1" style="stop-color:#005A9B"/>
	</linearGradient>
	<polygon class="st0" points="0,1920 0,0 1080,0 1080,1920 	"/>
	<line class="st1" x1="219.8" y1="1749.2" x2="219.8" y2="1749.6"/>
	<line class="st1" x1="-279.8" y1="1749.2" x2="-279.8" y2="1749.6"/>
	<line class="st1" x1="1235.1" y1="1749.2" x2="1235.1" y2="1749.6"/>
	<g class="st2">
		
			<linearGradient id="SVGID_4_" gradientUnits="userSpaceOnUse" x1="2614.7834" y1="1887.9637" x2="2614.7834" y2="159.0553" gradientTransform="matrix(-0.2693 0.8966 -0.9577 -0.2877 1719.1295 -1867.7559)">
			<stop  offset="0" style="stop-color:#FFFFFF"/>
			<stop  offset="1" style="stop-color:#FFFFFF;stop-opacity:0"/>
		</linearGradient>
		<polygon class="st3" points="-778.2,-116.6 -808.4,-16.2 847.4,481.2 877.6,380.8 		"/>
		
			<linearGradient id="SVGID_5_" gradientUnits="userSpaceOnUse" x1="4374.7998" y1="1607.6481" x2="4374.7998" y2="-121.2604" gradientTransform="matrix(-0.1347 0.4483 -0.9577 -0.2877 1524.5944 -1220.1687)">
			<stop  offset="0" style="stop-color:#FFFFFF"/>
			<stop  offset="1" style="stop-color:#FFFFFF;stop-opacity:0"/>
		</linearGradient>
		<polygon class="st4" points="-596.7,253.5 -611.8,303.7 1044,801.1 1059.1,750.9 		"/>
		
			<linearGradient id="SVGID_6_" gradientUnits="userSpaceOnUse" x1="2847.6719" y1="1607.6504" x2="2847.6719" y2="-121.2583" gradientTransform="matrix(-0.2693 0.8966 -0.9577 -0.2877 1719.1295 -1867.7559)">
			<stop  offset="0" style="stop-color:#FFFFFF"/>
			<stop  offset="1" style="stop-color:#FFFFFF;stop-opacity:0"/>
		</linearGradient>
		<polygon class="st5" points="-572.5,172.8 -602.6,273.2 1053.2,770.6 1083.3,670.2 		"/>
		
			<linearGradient id="SVGID_7_" gradientUnits="userSpaceOnUse" x1="2044.736" y1="1535.3079" x2="2044.736" y2="-193.6008" gradientTransform="matrix(-0.5041 1.6781 -0.9577 -0.2877 2011.7692 -2841.9216)">
			<stop  offset="0" style="stop-color:#FFFFFF"/>
			<stop  offset="1" style="stop-color:#FFFFFF;stop-opacity:0"/>
		</linearGradient>
		<polygon class="st6" points="-461.1,53.7 -517.6,241.7 1138.2,739.1 1194.7,551.1 		"/>
		
			<linearGradient id="SVGID_8_" gradientUnits="userSpaceOnUse" x1="2425.0969" y1="1480.8143" x2="2425.0969" y2="-248.0942" gradientTransform="matrix(-0.3934 1.3095 -0.9577 -0.2877 1860.7935 -2339.3394)">
			<stop  offset="0" style="stop-color:#FFFFFF"/>
			<stop  offset="1" style="stop-color:#FFFFFF;stop-opacity:0"/>
		</linearGradient>
		<polygon class="st7" points="-489.3,336.9 -533.4,483.5 1122.4,980.9 1166.5,834.3 		"/>
		
			<linearGradient id="SVGID_9_" gradientUnits="userSpaceOnUse" x1="2503.2312" y1="1723.8187" x2="2503.2312" y2="-5.0899" gradientTransform="matrix(-0.3934 1.3095 -0.9577 -0.2877 1860.7935 -2339.3394)">
			<stop  offset="0" style="stop-color:#FFFFFF"/>
			<stop  offset="1" style="stop-color:#FFFFFF;stop-opacity:0"/>
		</linearGradient>
		<polygon class="st8" points="-752.8,369.3 -796.8,515.9 859,1013.3 903,866.7 		"/>
		
			<linearGradient id="SVGID_10_" gradientUnits="userSpaceOnUse" x1="3511.1301" y1="1379.9547" x2="3511.1301" y2="-349.0367" gradientTransform="matrix(-0.2056 0.6844 -0.9091 -0.2731 1527.9402 -1441.4585)">
			<stop  offset="0" style="stop-color:#FFFFFF"/>
			<stop  offset="1" style="stop-color:#FFFFFF;stop-opacity:0"/>
		</linearGradient>
		<polygon class="st9" points="-436.9,546.4 -459.9,623 1111.9,1095.2 1134.9,1018.5 		"/>
	</g>
	<g class="st2">
		
			<linearGradient id="SVGID_11_" gradientUnits="userSpaceOnUse" x1="-267.2089" y1="2900.4573" x2="-267.2089" y2="1171.5487" gradientTransform="matrix(0.2693 -0.8966 0.9577 0.2877 -421.9572 318.4589)">
			<stop  offset="0" style="stop-color:#FFFFFF"/>
			<stop  offset="1" style="stop-color:#FFFFFF;stop-opacity:0"/>
		</linearGradient>
		<polygon class="st10" points="2268.8,1442.7 2299,1342.3 643.2,844.9 613,945.3 		"/>
		
			<linearGradient id="SVGID_12_" gradientUnits="userSpaceOnUse" x1="-1389.1851" y1="2620.1414" x2="-1389.1851" y2="891.233" gradientTransform="matrix(0.1347 -0.4483 0.9577 0.2877 -227.4221 -329.1283)">
			<stop  offset="0" style="stop-color:#FFFFFF"/>
			<stop  offset="1" style="stop-color:#FFFFFF;stop-opacity:0"/>
		</linearGradient>
		<polygon class="st11" points="2087.3,1072.6 2102.4,1022.4 446.6,525 431.5,575.2 		"/>
		
			<linearGradient id="SVGID_13_" gradientUnits="userSpaceOnUse" x1="-34.3204" y1="2620.1438" x2="-34.3204" y2="891.2352" gradientTransform="matrix(0.2693 -0.8966 0.9577 0.2877 -421.9572 318.4589)">
			<stop  offset="0" style="stop-color:#FFFFFF"/>
			<stop  offset="1" style="stop-color:#FFFFFF;stop-opacity:0"/>
		</linearGradient>
		<polygon class="st12" points="2063.1,1153.2 2093.2,1052.8 437.4,555.4 407.3,655.8 		"/>
		
			<linearGradient id="SVGID_14_" gradientUnits="userSpaceOnUse" x1="504.8821" y1="2547.8013" x2="504.8821" y2="818.8926" gradientTransform="matrix(0.5041 -1.6781 0.9577 0.2877 -714.5968 1292.6246)">
			<stop  offset="0" style="stop-color:#FFFFFF"/>
			<stop  offset="1" style="stop-color:#FFFFFF;stop-opacity:0"/>
		</linearGradient>
		<polygon class="st13" points="1951.7,1272.3 2008.2,1084.4 352.4,587 296,774.9 		"/>
		
			<linearGradient id="SVGID_15_" gradientUnits="userSpaceOnUse" x1="451.7012" y1="2493.3076" x2="451.7012" y2="764.3994" gradientTransform="matrix(0.3934 -1.3095 0.9577 0.2877 -563.6211 790.0422)">
			<stop  offset="0" style="stop-color:#FFFFFF"/>
			<stop  offset="1" style="stop-color:#FFFFFF;stop-opacity:0"/>
		</linearGradient>
		<polygon class="st14" points="1979.9,989.2 2024,842.5 368.2,345.1 324.1,491.8 		"/>
		
			<linearGradient id="SVGID_16_" gradientUnits="userSpaceOnUse" x1="529.8354" y1="2736.3123" x2="529.8354" y2="1007.4036" gradientTransform="matrix(0.3934 -1.3095 0.9577 0.2877 -563.6211 790.0422)">
			<stop  offset="0" style="stop-color:#FFFFFF"/>
			<stop  offset="1" style="stop-color:#FFFFFF;stop-opacity:0"/>
		</linearGradient>
		<polygon class="st15" points="2243.4,956.8 2287.4,810.1 631.6,312.7 587.6,459.4 		"/>
		
			<linearGradient id="SVGID_17_" gradientUnits="userSpaceOnUse" x1="-264.6051" y1="2446.6025" x2="-264.6051" y2="717.6113" gradientTransform="matrix(0.2056 -0.6844 0.9091 0.2731 -230.7679 -107.8385)">
			<stop  offset="0" style="stop-color:#FFFFFF"/>
			<stop  offset="1" style="stop-color:#FFFFFF;stop-opacity:0"/>
		</linearGradient>
		<polygon class="st16" points="1927.5,779.7 1950.5,703.1 378.7,230.9 355.7,307.6 		"/>
	</g>
	<g class="st2">
		
			<linearGradient id="SVGID_18_" gradientUnits="userSpaceOnUse" x1="3268.5815" y1="1890.5249" x2="3268.5815" y2="161.6164" gradientTransform="matrix(-0.2693 0.8966 -0.9577 -0.2877 1719.1295 -1867.7559)">
			<stop  offset="0" style="stop-color:#FFFFFF"/>
			<stop  offset="1" style="stop-color:#FFFFFF;stop-opacity:0"/>
		</linearGradient>
		<polygon class="st17" points="-956.7,468.8 -986.9,569.3 668.9,1066.7 699.1,966.2 		"/>
		
			<linearGradient id="SVGID_19_" gradientUnits="userSpaceOnUse" x1="5682.396" y1="1610.2092" x2="5682.396" y2="-118.6993" gradientTransform="matrix(-0.1347 0.4483 -0.9577 -0.2877 1524.5944 -1220.1687)">
			<stop  offset="0" style="stop-color:#FFFFFF"/>
			<stop  offset="1" style="stop-color:#FFFFFF;stop-opacity:0"/>
		</linearGradient>
		<polygon class="st18" points="-775.2,839 -790.3,889.2 865.5,1386.6 880.6,1336.4 		"/>
		
			<linearGradient id="SVGID_20_" gradientUnits="userSpaceOnUse" x1="3501.47" y1="1610.2115" x2="3501.47" y2="-118.6972" gradientTransform="matrix(-0.2693 0.8966 -0.9577 -0.2877 1719.1295 -1867.7559)">
			<stop  offset="0" style="stop-color:#FFFFFF"/>
			<stop  offset="1" style="stop-color:#FFFFFF;stop-opacity:0"/>
		</linearGradient>
		<polygon class="st19" points="-751,758.3 -781.2,858.7 874.6,1356.1 904.8,1255.7 		"/>
		
			<linearGradient id="SVGID_21_" gradientUnits="userSpaceOnUse" x1="2394.0615" y1="1537.869" x2="2394.0615" y2="-191.0397" gradientTransform="matrix(-0.5041 1.6781 -0.9577 -0.2877 2011.7692 -2841.9216)">
			<stop  offset="0" style="stop-color:#FFFFFF"/>
			<stop  offset="1" style="stop-color:#FFFFFF;stop-opacity:0"/>
		</linearGradient>
		<polygon class="st20" points="-639.7,639.2 -696.2,827.2 959.6,1324.6 1016.1,1136.6 		"/>
		
			<linearGradient id="SVGID_22_" gradientUnits="userSpaceOnUse" x1="2872.7742" y1="1483.3754" x2="2872.7742" y2="-245.5331" gradientTransform="matrix(-0.3934 1.3095 -0.9577 -0.2877 1860.7935 -2339.3394)">
			<stop  offset="0" style="stop-color:#FFFFFF"/>
			<stop  offset="1" style="stop-color:#FFFFFF;stop-opacity:0"/>
		</linearGradient>
		<polygon class="st21" points="-667.8,922.3 -711.9,1069 943.9,1566.4 987.9,1419.7 		"/>
		
			<linearGradient id="SVGID_23_" gradientUnits="userSpaceOnUse" x1="2950.9084" y1="1726.3799" x2="2950.9084" y2="-2.5288" gradientTransform="matrix(-0.3934 1.3095 -0.9577 -0.2877 1860.7935 -2339.3394)">
			<stop  offset="0" style="stop-color:#FFFFFF"/>
			<stop  offset="1" style="stop-color:#FFFFFF;stop-opacity:0"/>
		</linearGradient>
		<polygon class="st22" points="-931.3,954.8 -975.4,1101.4 680.4,1598.8 724.5,1452.1 		"/>
		
			<linearGradient id="SVGID_24_" gradientUnits="userSpaceOnUse" x1="4367.6792" y1="1382.6527" x2="4367.6792" y2="-346.3386" gradientTransform="matrix(-0.2056 0.6844 -0.9091 -0.2731 1527.9402 -1441.4585)">
			<stop  offset="0" style="stop-color:#FFFFFF"/>
			<stop  offset="1" style="stop-color:#FFFFFF;stop-opacity:0"/>
		</linearGradient>
		<polygon class="st23" points="-615.4,1131.8 -638.5,1208.5 933.3,1680.6 956.4,1604 		"/>
	</g>
	<g class="st2">
		
			<linearGradient id="SVGID_25_" gradientUnits="userSpaceOnUse" x1="-921.007" y1="2897.896" x2="-921.007" y2="1168.9877" gradientTransform="matrix(0.2693 -0.8966 0.9577 0.2877 -421.9572 318.4589)">
			<stop  offset="0" style="stop-color:#FFFFFF"/>
			<stop  offset="1" style="stop-color:#FFFFFF;stop-opacity:0"/>
		</linearGradient>
		<polygon class="st24" points="2090.2,2028.2 2120.4,1927.8 464.6,1430.4 434.4,1530.8 		"/>
		
			<linearGradient id="SVGID_26_" gradientUnits="userSpaceOnUse" x1="-2696.7812" y1="2617.5803" x2="-2696.7812" y2="888.6719" gradientTransform="matrix(0.1347 -0.4483 0.9577 0.2877 -227.4221 -329.1283)">
			<stop  offset="0" style="stop-color:#FFFFFF"/>
			<stop  offset="1" style="stop-color:#FFFFFF;stop-opacity:0"/>
		</linearGradient>
		<polygon class="st25" points="1908.7,1658 1923.8,1607.8 268,1110.4 252.9,1160.6 		"/>
		
			<linearGradient id="SVGID_27_" gradientUnits="userSpaceOnUse" x1="-688.1185" y1="2617.5828" x2="-688.1185" y2="888.6741" gradientTransform="matrix(0.2693 -0.8966 0.9577 0.2877 -421.9572 318.4589)">
			<stop  offset="0" style="stop-color:#FFFFFF"/>
			<stop  offset="1" style="stop-color:#FFFFFF;stop-opacity:0"/>
		</linearGradient>
		<polygon class="st26" points="1884.5,1738.7 1914.7,1638.3 258.9,1140.9 228.7,1241.3 		"/>
		
			<linearGradient id="SVGID_28_" gradientUnits="userSpaceOnUse" x1="155.5566" y1="2545.2402" x2="155.5566" y2="816.3315" gradientTransform="matrix(0.5041 -1.6781 0.9577 0.2877 -714.5968 1292.6246)">
			<stop  offset="0" style="stop-color:#FFFFFF"/>
			<stop  offset="1" style="stop-color:#FFFFFF;stop-opacity:0"/>
		</linearGradient>
		<polygon class="st27" points="1773.2,1857.8 1829.7,1669.9 173.9,1172.5 117.4,1360.4 		"/>
		
			<linearGradient id="SVGID_29_" gradientUnits="userSpaceOnUse" x1="4.024" y1="2490.7466" x2="4.024" y2="761.8382" gradientTransform="matrix(0.3934 -1.3095 0.9577 0.2877 -563.6211 790.0422)">
			<stop  offset="0" style="stop-color:#FFFFFF"/>
			<stop  offset="1" style="stop-color:#FFFFFF;stop-opacity:0"/>
		</linearGradient>
		<polygon class="st28" points="1801.4,1574.7 1845.4,1428 189.6,930.6 145.6,1077.3 		"/>
		
			<linearGradient id="SVGID_30_" gradientUnits="userSpaceOnUse" x1="82.1582" y1="2733.7512" x2="82.1582" y2="1004.8425" gradientTransform="matrix(0.3934 -1.3095 0.9577 0.2877 -563.6211 790.0422)">
			<stop  offset="0" style="stop-color:#FFFFFF"/>
			<stop  offset="1" style="stop-color:#FFFFFF;stop-opacity:0"/>
		</linearGradient>
		<polygon class="st29" points="2064.8,1542.3 2108.9,1395.6 453.1,898.2 409,1044.9 		"/>
		
			<linearGradient id="SVGID_31_" gradientUnits="userSpaceOnUse" x1="-1121.1543" y1="2443.9045" x2="-1121.1543" y2="714.9131" gradientTransform="matrix(0.2056 -0.6844 0.9091 0.2731 -230.7679 -107.8385)">
			<stop  offset="0" style="stop-color:#FFFFFF"/>
			<stop  offset="1" style="stop-color:#FFFFFF;stop-opacity:0"/>
		</linearGradient>
		<polygon class="st30" points="1748.9,1365.2 1772,1288.5 200.2,816.4 177.1,893 		"/>
	</g>
	<g class="st2">
		
			<linearGradient id="SVGID_32_" gradientUnits="userSpaceOnUse" x1="3924.0447" y1="1886.1727" x2="3924.0447" y2="157.2643" gradientTransform="matrix(-0.2693 0.8966 -0.9577 -0.2877 1719.1295 -1867.7559)">
			<stop  offset="0" style="stop-color:#FFFFFF"/>
			<stop  offset="1" style="stop-color:#FFFFFF;stop-opacity:0"/>
		</linearGradient>
		<polygon class="st31" points="-1129.1,1057.8 -1159.3,1158.2 496.5,1655.6 526.7,1555.2 		"/>
		
			<linearGradient id="SVGID_33_" gradientUnits="userSpaceOnUse" x1="6993.3223" y1="1605.8571" x2="6993.3223" y2="-123.0515" gradientTransform="matrix(-0.1347 0.4483 -0.9577 -0.2877 1524.5944 -1220.1687)">
			<stop  offset="0" style="stop-color:#FFFFFF"/>
			<stop  offset="1" style="stop-color:#FFFFFF;stop-opacity:0"/>
		</linearGradient>
		<polygon class="st32" points="-947.6,1427.9 -962.7,1478.1 693.1,1975.5 708.2,1925.3 		"/>
		
			<linearGradient id="SVGID_34_" gradientUnits="userSpaceOnUse" x1="4156.9331" y1="1605.8594" x2="4156.9331" y2="-123.0493" gradientTransform="matrix(-0.2693 0.8966 -0.9577 -0.2877 1719.1295 -1867.7559)">
			<stop  offset="0" style="stop-color:#FFFFFF"/>
			<stop  offset="1" style="stop-color:#FFFFFF;stop-opacity:0"/>
		</linearGradient>
		<polygon class="st33" points="-923.4,1347.3 -953.5,1447.7 702.2,1945.1 732.4,1844.7 		"/>
		
			<linearGradient id="SVGID_35_" gradientUnits="userSpaceOnUse" x1="2744.2766" y1="1533.5168" x2="2744.2766" y2="-195.3919" gradientTransform="matrix(-0.5041 1.6781 -0.9577 -0.2877 2011.7692 -2841.9216)">
			<stop  offset="0" style="stop-color:#FFFFFF"/>
			<stop  offset="1" style="stop-color:#FFFFFF;stop-opacity:0"/>
		</linearGradient>
		<polygon class="st34" points="-812.1,1228.2 -868.5,1416.1 787.3,1913.5 843.7,1725.6 		"/>
		
			<linearGradient id="SVGID_36_" gradientUnits="userSpaceOnUse" x1="3321.5916" y1="1479.0232" x2="3321.5916" y2="-249.8852" gradientTransform="matrix(-0.3934 1.3095 -0.9577 -0.2877 1860.7935 -2339.3394)">
			<stop  offset="0" style="stop-color:#FFFFFF"/>
			<stop  offset="1" style="stop-color:#FFFFFF;stop-opacity:0"/>
		</linearGradient>
		<polygon class="st35" points="-840.2,1511.3 -884.3,1658 771.5,2155.4 815.6,2008.7 		"/>
		
			<linearGradient id="SVGID_37_" gradientUnits="userSpaceOnUse" x1="3399.7258" y1="1722.0277" x2="3399.7258" y2="-6.881" gradientTransform="matrix(-0.3934 1.3095 -0.9577 -0.2877 1860.7935 -2339.3394)">
			<stop  offset="0" style="stop-color:#FFFFFF"/>
			<stop  offset="1" style="stop-color:#FFFFFF;stop-opacity:0"/>
		</linearGradient>
		<polygon class="st36" points="-1103.7,1543.7 -1147.7,1690.4 508.1,2187.8 552.1,2041.1 		"/>
		
			<linearGradient id="SVGID_38_" gradientUnits="userSpaceOnUse" x1="5226.4102" y1="1378.0677" x2="5226.4102" y2="-350.9236" gradientTransform="matrix(-0.2056 0.6844 -0.9091 -0.2731 1527.9402 -1441.4585)">
			<stop  offset="0" style="stop-color:#FFFFFF"/>
			<stop  offset="1" style="stop-color:#FFFFFF;stop-opacity:0"/>
		</linearGradient>
		<polygon class="st37" points="-787.8,1720.8 -810.8,1797.4 761,2269.6 784,2193 		"/>
	</g>
	<g class="st2">
		
			<linearGradient id="SVGID_39_" gradientUnits="userSpaceOnUse" x1="-1576.4702" y1="2902.2483" x2="-1576.4702" y2="1173.3398" gradientTransform="matrix(0.2693 -0.8966 0.9577 0.2877 -421.9572 318.4589)">
			<stop  offset="0" style="stop-color:#FFFFFF"/>
			<stop  offset="1" style="stop-color:#FFFFFF;stop-opacity:0"/>
		</linearGradient>
		<polygon class="st38" points="1917.9,2617.1 1948,2516.7 292.2,2019.3 262.1,2119.7 		"/>
		
			<linearGradient id="SVGID_40_" gradientUnits="userSpaceOnUse" x1="-4007.7075" y1="2621.9326" x2="-4007.7075" y2="893.0241" gradientTransform="matrix(0.1347 -0.4483 0.9577 0.2877 -227.4221 -329.1283)">
			<stop  offset="0" style="stop-color:#FFFFFF"/>
			<stop  offset="1" style="stop-color:#FFFFFF;stop-opacity:0"/>
		</linearGradient>
		<polygon class="st39" points="1736.4,2247 1751.5,2196.8 95.7,1699.4 80.6,1749.6 		"/>
		
			<linearGradient id="SVGID_41_" gradientUnits="userSpaceOnUse" x1="-1343.5817" y1="2621.9348" x2="-1343.5817" y2="893.0262" gradientTransform="matrix(0.2693 -0.8966 0.9577 0.2877 -421.9572 318.4589)">
			<stop  offset="0" style="stop-color:#FFFFFF"/>
			<stop  offset="1" style="stop-color:#FFFFFF;stop-opacity:0"/>
		</linearGradient>
		<polygon class="st40" points="1712.1,2327.7 1742.3,2227.3 86.5,1729.9 56.3,1830.3 		"/>
		
			<linearGradient id="SVGID_42_" gradientUnits="userSpaceOnUse" x1="-194.6586" y1="2549.5923" x2="-194.6586" y2="820.6837" gradientTransform="matrix(0.5041 -1.6781 0.9577 0.2877 -714.5968 1292.6246)">
			<stop  offset="0" style="stop-color:#FFFFFF"/>
			<stop  offset="1" style="stop-color:#FFFFFF;stop-opacity:0"/>
		</linearGradient>
		<polygon class="st41" points="1600.8,2446.8 1657.3,2258.8 1.5,1761.4 -55,1949.4 		"/>
		
			<linearGradient id="SVGID_43_" gradientUnits="userSpaceOnUse" x1="-444.7934" y1="2495.0989" x2="-444.7934" y2="766.1904" gradientTransform="matrix(0.3934 -1.3095 0.9577 0.2877 -563.6211 790.0422)">
			<stop  offset="0" style="stop-color:#FFFFFF"/>
			<stop  offset="1" style="stop-color:#FFFFFF;stop-opacity:0"/>
		</linearGradient>
		<polygon class="st42" points="1629,2163.6 1673,2017 17.2,1519.6 -26.8,1666.2 		"/>
		
			<linearGradient id="SVGID_44_" gradientUnits="userSpaceOnUse" x1="-366.6591" y1="2738.1033" x2="-366.6591" y2="1009.1946" gradientTransform="matrix(0.3934 -1.3095 0.9577 0.2877 -563.6211 790.0422)">
			<stop  offset="0" style="stop-color:#FFFFFF"/>
			<stop  offset="1" style="stop-color:#FFFFFF;stop-opacity:0"/>
		</linearGradient>
		<polygon class="st43" points="1892.4,2131.2 1936.5,1984.6 280.7,1487.2 236.6,1633.8 		"/>
		
			<linearGradient id="SVGID_45_" gradientUnits="userSpaceOnUse" x1="-1979.885" y1="2448.4895" x2="-1979.885" y2="719.4981" gradientTransform="matrix(0.2056 -0.6844 0.9091 0.2731 -230.7679 -107.8385)">
			<stop  offset="0" style="stop-color:#FFFFFF"/>
			<stop  offset="1" style="stop-color:#FFFFFF;stop-opacity:0"/>
		</linearGradient>
		<polygon class="st44" points="1576.6,1954.1 1599.6,1877.5 27.8,1405.3 4.8,1482 		"/>
	</g>
	<g class="st2">
		
			<linearGradient id="SVGID_46_" gradientUnits="userSpaceOnUse" x1="1962.4543" y1="2206.0544" x2="1962.4543" y2="477.146" gradientTransform="matrix(-0.2693 0.8966 -0.9577 -0.2877 1719.1295 -1867.7559)">
			<stop  offset="0" style="stop-color:#FFFFFF"/>
			<stop  offset="1" style="stop-color:#FFFFFF;stop-opacity:0"/>
		</linearGradient>
		<polygon class="st45" points="-907.1,-793 -937.3,-692.6 718.5,-195.2 748.7,-295.6 		"/>
		
			<linearGradient id="SVGID_47_" gradientUnits="userSpaceOnUse" x1="3070.1414" y1="1925.7388" x2="3070.1414" y2="196.8303" gradientTransform="matrix(-0.1347 0.4483 -0.9577 -0.2877 1524.5944 -1220.1687)">
			<stop  offset="0" style="stop-color:#FFFFFF"/>
			<stop  offset="1" style="stop-color:#FFFFFF;stop-opacity:0"/>
		</linearGradient>
		<polygon class="st46" points="-725.6,-422.9 -740.7,-372.7 915.1,124.7 930.2,74.5 		"/>
		
			<linearGradient id="SVGID_48_" gradientUnits="userSpaceOnUse" x1="2195.3428" y1="1925.7411" x2="2195.3428" y2="196.8324" gradientTransform="matrix(-0.2693 0.8966 -0.9577 -0.2877 1719.1295 -1867.7559)">
			<stop  offset="0" style="stop-color:#FFFFFF"/>
			<stop  offset="1" style="stop-color:#FFFFFF;stop-opacity:0"/>
		</linearGradient>
		<polygon class="st47" points="-701.4,-503.6 -731.6,-403.2 924.2,94.2 954.4,-6.2 		"/>
		
			<linearGradient id="SVGID_49_" gradientUnits="userSpaceOnUse" x1="1696.1953" y1="1853.3986" x2="1696.1953" y2="124.4898" gradientTransform="matrix(-0.5041 1.6781 -0.9577 -0.2877 2011.7692 -2841.9216)">
			<stop  offset="0" style="stop-color:#FFFFFF"/>
			<stop  offset="1" style="stop-color:#FFFFFF;stop-opacity:0"/>
		</linearGradient>
		<polygon class="st48" points="-590.1,-622.7 -646.5,-434.7 1009.3,62.7 1065.7,-125.3 		"/>
		
			<linearGradient id="SVGID_50_" gradientUnits="userSpaceOnUse" x1="1978.4255" y1="1798.9049" x2="1978.4255" y2="69.9965" gradientTransform="matrix(-0.3934 1.3095 -0.9577 -0.2877 1860.7935 -2339.3394)">
			<stop  offset="0" style="stop-color:#FFFFFF"/>
			<stop  offset="1" style="stop-color:#FFFFFF;stop-opacity:0"/>
		</linearGradient>
		<polygon class="st49" points="-618.2,-339.5 -662.3,-192.9 993.5,304.5 1037.6,157.9 		"/>
		
			<linearGradient id="SVGID_51_" gradientUnits="userSpaceOnUse" x1="2056.5598" y1="2041.9094" x2="2056.5598" y2="313.0008" gradientTransform="matrix(-0.3934 1.3095 -0.9577 -0.2877 1860.7935 -2339.3394)">
			<stop  offset="0" style="stop-color:#FFFFFF"/>
			<stop  offset="1" style="stop-color:#FFFFFF;stop-opacity:0"/>
		</linearGradient>
		<polygon class="st50" points="-881.7,-307.1 -925.8,-160.5 730,336.9 774.1,190.3 		"/>
		
			<linearGradient id="SVGID_52_" gradientUnits="userSpaceOnUse" x1="2656.5051" y1="1715.0588" x2="2656.5051" y2="-13.9326" gradientTransform="matrix(-0.2056 0.6844 -0.9091 -0.2731 1527.9402 -1441.4585)">
			<stop  offset="0" style="stop-color:#FFFFFF"/>
			<stop  offset="1" style="stop-color:#FFFFFF;stop-opacity:0"/>
		</linearGradient>
		<polygon class="st51" points="-565.8,-130.1 -588.9,-53.4 982.9,418.8 1006,342.1 		"/>
	</g>
	<g class="st2">
		
			<linearGradient id="SVGID_53_" gradientUnits="userSpaceOnUse" x1="385.1202" y1="2582.3665" x2="385.1202" y2="853.4581" gradientTransform="matrix(0.2693 -0.8966 0.9577 0.2877 -421.9572 318.4589)">
			<stop  offset="0" style="stop-color:#FFFFFF"/>
			<stop  offset="1" style="stop-color:#FFFFFF;stop-opacity:0"/>
		</linearGradient>
		<polygon class="st52" points="2139.9,766.3 2170,665.9 514.2,168.5 484.1,268.9 		"/>
		
			<linearGradient id="SVGID_54_" gradientUnits="userSpaceOnUse" x1="-84.5267" y1="2302.0508" x2="-84.5267" y2="573.1424" gradientTransform="matrix(0.1347 -0.4483 0.9577 0.2877 -227.4221 -329.1283)">
			<stop  offset="0" style="stop-color:#FFFFFF"/>
			<stop  offset="1" style="stop-color:#FFFFFF;stop-opacity:0"/>
		</linearGradient>
		<polygon class="st53" points="1958.4,396.2 1973.4,345.9 317.6,-151.4 302.6,-101.2 		"/>
		
			<linearGradient id="SVGID_55_" gradientUnits="userSpaceOnUse" x1="618.0087" y1="2302.0532" x2="618.0087" y2="573.1445" gradientTransform="matrix(0.2693 -0.8966 0.9577 0.2877 -421.9572 318.4589)">
			<stop  offset="0" style="stop-color:#FFFFFF"/>
			<stop  offset="1" style="stop-color:#FFFFFF;stop-opacity:0"/>
		</linearGradient>
		<polygon class="st54" points="1934.1,476.8 1964.3,376.4 308.5,-121 278.3,-20.6 		"/>
		
			<linearGradient id="SVGID_56_" gradientUnits="userSpaceOnUse" x1="853.4228" y1="2229.7107" x2="853.4228" y2="500.802" gradientTransform="matrix(0.5041 -1.6781 0.9577 0.2877 -714.5968 1292.6246)">
			<stop  offset="0" style="stop-color:#FFFFFF"/>
			<stop  offset="1" style="stop-color:#FFFFFF;stop-opacity:0"/>
		</linearGradient>
		<polygon class="st55" points="1822.8,595.9 1879.3,408 223.5,-89.4 167,98.5 		"/>
		
			<linearGradient id="SVGID_57_" gradientUnits="userSpaceOnUse" x1="898.3726" y1="2175.217" x2="898.3726" y2="446.3087" gradientTransform="matrix(0.3934 -1.3095 0.9577 0.2877 -563.6211 790.0422)">
			<stop  offset="0" style="stop-color:#FFFFFF"/>
			<stop  offset="1" style="stop-color:#FFFFFF;stop-opacity:0"/>
		</linearGradient>
		<polygon class="st56" points="1851,312.8 1895,166.1 239.2,-331.3 195.2,-184.6 		"/>
		
			<linearGradient id="SVGID_58_" gradientUnits="userSpaceOnUse" x1="976.5068" y1="2418.2217" x2="976.5068" y2="689.3129" gradientTransform="matrix(0.3934 -1.3095 0.9577 0.2877 -563.6211 790.0422)">
			<stop  offset="0" style="stop-color:#FFFFFF"/>
			<stop  offset="1" style="stop-color:#FFFFFF;stop-opacity:0"/>
		</linearGradient>
		<polygon class="st57" points="2114.4,280.4 2158.5,133.7 502.7,-363.7 458.6,-217 		"/>
		
			<linearGradient id="SVGID_59_" gradientUnits="userSpaceOnUse" x1="590.0197" y1="2111.4985" x2="590.0197" y2="382.5071" gradientTransform="matrix(0.2056 -0.6844 0.9091 0.2731 -230.7679 -107.8385)">
			<stop  offset="0" style="stop-color:#FFFFFF"/>
			<stop  offset="1" style="stop-color:#FFFFFF;stop-opacity:0"/>
		</linearGradient>
		<polygon class="st58" points="1798.6,103.3 1821.6,26.7 249.8,-445.5 226.8,-368.9 		"/>
	</g>
</g>
</svg>
