<?xml version="1.0" encoding="utf-8"?>
<!-- Generator: Adobe Illustrator 24.2.0, SVG Export Plug-In . SVG Version: 6.00 Build 0)  -->
<svg version="1.1" id="Layer_1" xmlns="http://www.w3.org/2000/svg" xmlns:xlink="http://www.w3.org/1999/xlink" x="0px" y="0px"
	 viewBox="0 0 1920 1080" style="enable-background:new 0 0 1920 1080;" xml:space="preserve">
<style type="text/css">
	.st0{clip-path:url(#SVGID_2_);fill:url(#SVGID_3_);}
	.st1{clip-path:url(#SVGID_2_);fill:none;stroke:#33B7BB;stroke-width:2.1759;stroke-miterlimit:10;}
	.st2{opacity:0.5;clip-path:url(#SVGID_2_);}
	.st3{opacity:0.8;fill:url(#SVGID_4_);}
	.st4{opacity:0.8;fill:url(#SVGID_5_);}
	.st5{opacity:0.8;fill:url(#SVGID_6_);}
	.st6{opacity:0.8;fill:url(#SVGID_7_);}
	.st7{opacity:0.8;fill:url(#SVGID_8_);}
	.st8{opacity:0.8;fill:url(#SVGID_9_);}
	.st9{opacity:0.8;fill:url(#SVGID_10_);}
	.st10{opacity:0.8;fill:url(#SVGID_11_);}
	.st11{opacity:0.8;fill:url(#SVGID_12_);}
	.st12{opacity:0.8;fill:url(#SVGID_13_);}
	.st13{opacity:0.8;fill:url(#SVGID_14_);}
	.st14{opacity:0.8;fill:url(#SVGID_15_);}
	.st15{opacity:0.8;fill:url(#SVGID_16_);}
	.st16{opacity:0.8;fill:url(#SVGID_17_);}
	.st17{opacity:0.8;fill:url(#SVGID_18_);}
	.st18{opacity:0.8;fill:url(#SVGID_19_);}
	.st19{opacity:0.8;fill:url(#SVGID_20_);}
	.st20{opacity:0.8;fill:url(#SVGID_21_);}
	.st21{opacity:0.8;fill:url(#SVGID_22_);}
	.st22{opacity:0.8;fill:url(#SVGID_23_);}
	.st23{opacity:0.8;fill:url(#SVGID_24_);}
	.st24{opacity:0.8;fill:url(#SVGID_25_);}
	.st25{opacity:0.8;fill:url(#SVGID_26_);}
	.st26{opacity:0.8;fill:url(#SVGID_27_);}
	.st27{opacity:0.8;fill:url(#SVGID_28_);}
	.st28{opacity:0.8;fill:url(#SVGID_29_);}
	.st29{opacity:0.8;fill:url(#SVGID_30_);}
	.st30{opacity:0.8;fill:url(#SVGID_31_);}
	.st31{opacity:0.8;fill:url(#SVGID_32_);}
	.st32{opacity:0.8;fill:url(#SVGID_33_);}
	.st33{opacity:0.8;fill:url(#SVGID_34_);}
	.st34{opacity:0.8;fill:url(#SVGID_35_);}
	.st35{opacity:0.8;fill:url(#SVGID_36_);}
	.st36{opacity:0.8;fill:url(#SVGID_37_);}
	.st37{opacity:0.8;fill:url(#SVGID_38_);}
	.st38{opacity:0.8;fill:url(#SVGID_39_);}
	.st39{opacity:0.8;fill:url(#SVGID_40_);}
	.st40{opacity:0.8;fill:url(#SVGID_41_);}
	.st41{opacity:0.8;fill:url(#SVGID_42_);}
	.st42{opacity:0.8;fill:url(#SVGID_43_);}
	.st43{opacity:0.8;fill:url(#SVGID_44_);}
	.st44{opacity:0.8;fill:url(#SVGID_45_);}
</style>
<g>
	<defs>
		<rect id="SVGID_1_" width="1920" height="1080"/>
	</defs>
	<clipPath id="SVGID_2_">
		<use xlink:href="#SVGID_1_"  style="overflow:visible;"/>
	</clipPath>
	
		<linearGradient id="SVGID_3_" gradientUnits="userSpaceOnUse" x1="34.457" y1="-106.016" x2="2003.1628" y2="1268.113" gradientTransform="matrix(0 1 -1 0 1500 -420)">
		<stop  offset="0" style="stop-color:#00A590"/>
		<stop  offset="1" style="stop-color:#005A9C"/>
	</linearGradient>
	<polygon class="st0" points="0,1080 0,0 1920,0 1920,1080 	"/>
	<line class="st1" x1="563.3" y1="1027.5" x2="563.3" y2="1028"/>
	<line class="st1" x1="63.7" y1="1027.5" x2="63.7" y2="1028"/>
	<line class="st1" x1="1578.6" y1="1027.5" x2="1578.6" y2="1028"/>
	<g class="st2">
		
			<linearGradient id="SVGID_4_" gradientUnits="userSpaceOnUse" x1="2749.698" y1="1627.999" x2="2749.698" y2="-100.9094" gradientTransform="matrix(-0.2693 0.8966 -0.9577 -0.2877 1850.0145 -2785.1709)">
			<stop  offset="0" style="stop-color:#FFFFFF"/>
			<stop  offset="1" style="stop-color:#FFFFFF;stop-opacity:0"/>
		</linearGradient>
		<polygon class="st3" points="-434.7,-838.3 -464.8,-737.9 1191,-240.5 1221.1,-340.9 		"/>
		
			<linearGradient id="SVGID_5_" gradientUnits="userSpaceOnUse" x1="4224.6289" y1="1347.6833" x2="4224.6289" y2="-381.2251" gradientTransform="matrix(-0.1347 0.4483 -0.9577 -0.2877 1598.9172 -1949.2917)">
			<stop  offset="0" style="stop-color:#FFFFFF"/>
			<stop  offset="1" style="stop-color:#FFFFFF;stop-opacity:0"/>
		</linearGradient>
		<polygon class="st4" points="-253.2,-468.2 -268.3,-417.9 1387.5,79.4 1402.6,29.2 		"/>
		
			<linearGradient id="SVGID_6_" gradientUnits="userSpaceOnUse" x1="2982.5864" y1="1347.6857" x2="2982.5864" y2="-381.223" gradientTransform="matrix(-0.2693 0.8966 -0.9577 -0.2877 1850.0145 -2785.1709)">
			<stop  offset="0" style="stop-color:#FFFFFF"/>
			<stop  offset="1" style="stop-color:#FFFFFF;stop-opacity:0"/>
		</linearGradient>
		<polygon class="st5" points="-228.9,-548.8 -259.1,-448.4 1396.7,49 1426.9,-51.4 		"/>
		
			<linearGradient id="SVGID_7_" gradientUnits="userSpaceOnUse" x1="2312.4143" y1="1275.3431" x2="2312.4143" y2="-453.5655" gradientTransform="matrix(-0.5041 1.6781 -0.9577 -0.2877 2241.2534 -4087.5674)">
			<stop  offset="0" style="stop-color:#FFFFFF"/>
			<stop  offset="1" style="stop-color:#FFFFFF;stop-opacity:0"/>
		</linearGradient>
		<polygon class="st6" points="-117.6,-667.9 -174.1,-480 1481.7,17.4 1538.2,-170.5 		"/>
		
			<linearGradient id="SVGID_8_" gradientUnits="userSpaceOnUse" x1="2649.8894" y1="1220.8496" x2="2649.8894" y2="-508.0589" gradientTransform="matrix(-0.3934 1.3095 -0.9577 -0.2877 2043.7634 -3430.1421)">
			<stop  offset="0" style="stop-color:#FFFFFF"/>
			<stop  offset="1" style="stop-color:#FFFFFF;stop-opacity:0"/>
		</linearGradient>
		<polygon class="st7" points="-145.8,-384.8 -189.8,-238.1 1466,259.3 1510,112.6 		"/>
		
			<linearGradient id="SVGID_9_" gradientUnits="userSpaceOnUse" x1="2728.0237" y1="1463.854" x2="2728.0237" y2="-265.0546" gradientTransform="matrix(-0.3934 1.3095 -0.9577 -0.2877 2043.7634 -3430.1421)">
			<stop  offset="0" style="stop-color:#FFFFFF"/>
			<stop  offset="1" style="stop-color:#FFFFFF;stop-opacity:0"/>
		</linearGradient>
		<polygon class="st8" points="-409.2,-352.4 -453.3,-205.7 1202.5,291.7 1246.6,145 		"/>
		
			<linearGradient id="SVGID_10_" gradientUnits="userSpaceOnUse" x1="3557.636" y1="1128.5497" x2="3557.636" y2="-600.4417" gradientTransform="matrix(-0.2056 0.6844 -0.9091 -0.2731 1652.4698 -2263.5986)">
			<stop  offset="0" style="stop-color:#FFFFFF"/>
			<stop  offset="1" style="stop-color:#FFFFFF;stop-opacity:0"/>
		</linearGradient>
		<polygon class="st9" points="-93.4,-175.3 -116.4,-98.7 1455.4,373.5 1478.4,296.9 		"/>
	</g>
	<g class="st2">
		
			<linearGradient id="SVGID_11_" gradientUnits="userSpaceOnUse" x1="437.8766" y1="2320.4219" x2="437.8766" y2="591.5135" gradientTransform="matrix(0.2693 -0.8966 0.9577 0.2877 287.1579 395.8738)">
			<stop  offset="0" style="stop-color:#FFFFFF"/>
			<stop  offset="1" style="stop-color:#FFFFFF;stop-opacity:0"/>
		</linearGradient>
		<polygon class="st10" points="2612.3,721 2642.5,620.6 986.7,123.2 956.5,223.6 		"/>
		
			<linearGradient id="SVGID_12_" gradientUnits="userSpaceOnUse" x1="-399.0141" y1="2040.1062" x2="-399.0141" y2="311.1978" gradientTransform="matrix(0.1347 -0.4483 0.9577 0.2877 538.2551 -440.0053)">
			<stop  offset="0" style="stop-color:#FFFFFF"/>
			<stop  offset="1" style="stop-color:#FFFFFF;stop-opacity:0"/>
		</linearGradient>
		<polygon class="st11" points="2430.8,350.9 2445.9,300.7 790.1,-196.7 775,-146.5 		"/>
		
			<linearGradient id="SVGID_13_" gradientUnits="userSpaceOnUse" x1="670.765" y1="2040.1085" x2="670.765" y2="311.1999" gradientTransform="matrix(0.2693 -0.8966 0.9577 0.2877 287.1579 395.8738)">
			<stop  offset="0" style="stop-color:#FFFFFF"/>
			<stop  offset="1" style="stop-color:#FFFFFF;stop-opacity:0"/>
		</linearGradient>
		<polygon class="st12" points="2406.6,431.6 2436.7,331.2 780.9,-166.2 750.8,-65.8 		"/>
		
			<linearGradient id="SVGID_14_" gradientUnits="userSpaceOnUse" x1="1077.2039" y1="1967.766" x2="1077.2039" y2="238.8573" gradientTransform="matrix(0.5041 -1.6781 0.9577 0.2877 -104.0811 1698.2705)">
			<stop  offset="0" style="stop-color:#FFFFFF"/>
			<stop  offset="1" style="stop-color:#FFFFFF;stop-opacity:0"/>
		</linearGradient>
		<polygon class="st13" points="2295.3,550.7 2351.7,362.7 695.9,-134.7 639.5,53.3 		"/>
		
			<linearGradient id="SVGID_15_" gradientUnits="userSpaceOnUse" x1="1066.9087" y1="1913.2725" x2="1066.9087" y2="184.3641" gradientTransform="matrix(0.3934 -1.3095 0.9577 0.2877 93.4089 1040.845)">
			<stop  offset="0" style="stop-color:#FFFFFF"/>
			<stop  offset="1" style="stop-color:#FFFFFF;stop-opacity:0"/>
		</linearGradient>
		<polygon class="st14" points="2323.4,267.5 2367.5,120.9 711.7,-376.5 667.6,-229.9 		"/>
		
			<linearGradient id="SVGID_16_" gradientUnits="userSpaceOnUse" x1="1145.0428" y1="2156.2769" x2="1145.0428" y2="427.3683" gradientTransform="matrix(0.3934 -1.3095 0.9577 0.2877 93.4089 1040.845)">
			<stop  offset="0" style="stop-color:#FFFFFF"/>
			<stop  offset="1" style="stop-color:#FFFFFF;stop-opacity:0"/>
		</linearGradient>
		<polygon class="st15" points="2586.9,235.1 2630.9,88.5 975.1,-408.9 931.1,-262.3 		"/>
		
			<linearGradient id="SVGID_17_" gradientUnits="userSpaceOnUse" x1="528.889" y1="1858.0076" x2="528.889" y2="129.0163" gradientTransform="matrix(0.2056 -0.6844 0.9091 0.2731 484.7025 -125.6983)">
			<stop  offset="0" style="stop-color:#FFFFFF"/>
			<stop  offset="1" style="stop-color:#FFFFFF;stop-opacity:0"/>
		</linearGradient>
		<polygon class="st16" points="2271,58.1 2294,-18.6 722.2,-490.8 699.2,-414.1 		"/>
	</g>
	<g class="st2">
		
			<linearGradient id="SVGID_18_" gradientUnits="userSpaceOnUse" x1="3403.4961" y1="1630.5602" x2="3403.4961" y2="-98.3483" gradientTransform="matrix(-0.2693 0.8966 -0.9577 -0.2877 1850.0145 -2785.1709)">
			<stop  offset="0" style="stop-color:#FFFFFF"/>
			<stop  offset="1" style="stop-color:#FFFFFF;stop-opacity:0"/>
		</linearGradient>
		<polygon class="st17" points="-613.2,-252.8 -643.4,-152.4 1012.4,345 1042.6,244.6 		"/>
		
			<linearGradient id="SVGID_19_" gradientUnits="userSpaceOnUse" x1="5532.2251" y1="1350.2445" x2="5532.2251" y2="-378.664" gradientTransform="matrix(-0.1347 0.4483 -0.9577 -0.2877 1598.9172 -1949.2917)">
			<stop  offset="0" style="stop-color:#FFFFFF"/>
			<stop  offset="1" style="stop-color:#FFFFFF;stop-opacity:0"/>
		</linearGradient>
		<polygon class="st18" points="-431.7,117.3 -446.8,167.5 1209,664.9 1224.1,614.7 		"/>
		
			<linearGradient id="SVGID_20_" gradientUnits="userSpaceOnUse" x1="3636.3845" y1="1350.2468" x2="3636.3845" y2="-378.6619" gradientTransform="matrix(-0.2693 0.8966 -0.9577 -0.2877 1850.0145 -2785.1709)">
			<stop  offset="0" style="stop-color:#FFFFFF"/>
			<stop  offset="1" style="stop-color:#FFFFFF;stop-opacity:0"/>
		</linearGradient>
		<polygon class="st19" points="-407.5,36.6 -437.7,137.1 1218.1,634.5 1248.3,534 		"/>
		
			<linearGradient id="SVGID_21_" gradientUnits="userSpaceOnUse" x1="2661.7397" y1="1277.9043" x2="2661.7397" y2="-451.0044" gradientTransform="matrix(-0.5041 1.6781 -0.9577 -0.2877 2241.2534 -4087.5674)">
			<stop  offset="0" style="stop-color:#FFFFFF"/>
			<stop  offset="1" style="stop-color:#FFFFFF;stop-opacity:0"/>
		</linearGradient>
		<polygon class="st20" points="-296.2,-82.4 -352.6,105.5 1303.2,602.9 1359.6,415 		"/>
		
			<linearGradient id="SVGID_22_" gradientUnits="userSpaceOnUse" x1="3097.5667" y1="1223.4106" x2="3097.5667" y2="-505.4978" gradientTransform="matrix(-0.3934 1.3095 -0.9577 -0.2877 2043.7634 -3430.1421)">
			<stop  offset="0" style="stop-color:#FFFFFF"/>
			<stop  offset="1" style="stop-color:#FFFFFF;stop-opacity:0"/>
		</linearGradient>
		<polygon class="st21" points="-324.3,200.7 -368.4,347.3 1287.4,844.7 1331.5,698.1 		"/>
		
			<linearGradient id="SVGID_23_" gradientUnits="userSpaceOnUse" x1="3175.7009" y1="1466.4152" x2="3175.7009" y2="-262.4935" gradientTransform="matrix(-0.3934 1.3095 -0.9577 -0.2877 2043.7634 -3430.1421)">
			<stop  offset="0" style="stop-color:#FFFFFF"/>
			<stop  offset="1" style="stop-color:#FFFFFF;stop-opacity:0"/>
		</linearGradient>
		<polygon class="st22" points="-587.8,233.1 -631.8,379.7 1024,877.1 1068,730.5 		"/>
		
			<linearGradient id="SVGID_24_" gradientUnits="userSpaceOnUse" x1="4414.1851" y1="1131.2477" x2="4414.1851" y2="-597.7437" gradientTransform="matrix(-0.2056 0.6844 -0.9091 -0.2731 1652.4698 -2263.5986)">
			<stop  offset="0" style="stop-color:#FFFFFF"/>
			<stop  offset="1" style="stop-color:#FFFFFF;stop-opacity:0"/>
		</linearGradient>
		<polygon class="st23" points="-271.9,410.2 -295,486.8 1276.9,959 1299.9,882.3 		"/>
	</g>
	<g class="st2">
		
			<linearGradient id="SVGID_25_" gradientUnits="userSpaceOnUse" x1="-215.9216" y1="2317.8608" x2="-215.9216" y2="588.9524" gradientTransform="matrix(0.2693 -0.8966 0.9577 0.2877 287.1579 395.8738)">
			<stop  offset="0" style="stop-color:#FFFFFF"/>
			<stop  offset="1" style="stop-color:#FFFFFF;stop-opacity:0"/>
		</linearGradient>
		<polygon class="st24" points="2433.8,1306.5 2463.9,1206.1 808.1,708.7 778,809.1 		"/>
		
			<linearGradient id="SVGID_26_" gradientUnits="userSpaceOnUse" x1="-1706.6102" y1="2037.545" x2="-1706.6102" y2="308.6367" gradientTransform="matrix(0.1347 -0.4483 0.9577 0.2877 538.2551 -440.0053)">
			<stop  offset="0" style="stop-color:#FFFFFF"/>
			<stop  offset="1" style="stop-color:#FFFFFF;stop-opacity:0"/>
		</linearGradient>
		<polygon class="st25" points="2252.3,936.4 2267.3,886.2 611.5,388.8 596.5,439 		"/>
		
			<linearGradient id="SVGID_27_" gradientUnits="userSpaceOnUse" x1="16.9669" y1="2037.5474" x2="16.9669" y2="308.6388" gradientTransform="matrix(0.2693 -0.8966 0.9577 0.2877 287.1579 395.8738)">
			<stop  offset="0" style="stop-color:#FFFFFF"/>
			<stop  offset="1" style="stop-color:#FFFFFF;stop-opacity:0"/>
		</linearGradient>
		<polygon class="st26" points="2228,1017.1 2258.2,916.6 602.4,419.2 572.2,519.7 		"/>
		
			<linearGradient id="SVGID_28_" gradientUnits="userSpaceOnUse" x1="727.8783" y1="1965.2048" x2="727.8783" y2="236.2962" gradientTransform="matrix(0.5041 -1.6781 0.9577 0.2877 -104.0811 1698.2705)">
			<stop  offset="0" style="stop-color:#FFFFFF"/>
			<stop  offset="1" style="stop-color:#FFFFFF;stop-opacity:0"/>
		</linearGradient>
		<polygon class="st27" points="2116.7,1136.1 2173.2,948.2 517.4,450.8 460.9,638.7 		"/>
		
			<linearGradient id="SVGID_29_" gradientUnits="userSpaceOnUse" x1="619.2314" y1="1910.7113" x2="619.2314" y2="181.8029" gradientTransform="matrix(0.3934 -1.3095 0.9577 0.2877 93.4089 1040.845)">
			<stop  offset="0" style="stop-color:#FFFFFF"/>
			<stop  offset="1" style="stop-color:#FFFFFF;stop-opacity:0"/>
		</linearGradient>
		<polygon class="st28" points="2144.9,853 2188.9,706.4 533.1,209 489.1,355.6 		"/>
		
			<linearGradient id="SVGID_30_" gradientUnits="userSpaceOnUse" x1="697.3657" y1="2153.7158" x2="697.3657" y2="424.8072" gradientTransform="matrix(0.3934 -1.3095 0.9577 0.2877 93.4089 1040.845)">
			<stop  offset="0" style="stop-color:#FFFFFF"/>
			<stop  offset="1" style="stop-color:#FFFFFF;stop-opacity:0"/>
		</linearGradient>
		<polygon class="st29" points="2408.3,820.6 2452.4,674 796.6,176.6 752.5,323.2 		"/>
		
			<linearGradient id="SVGID_31_" gradientUnits="userSpaceOnUse" x1="-327.6602" y1="1855.3094" x2="-327.6602" y2="126.3182" gradientTransform="matrix(0.2056 -0.6844 0.9091 0.2731 484.7025 -125.6983)">
			<stop  offset="0" style="stop-color:#FFFFFF"/>
			<stop  offset="1" style="stop-color:#FFFFFF;stop-opacity:0"/>
		</linearGradient>
		<polygon class="st30" points="2092.5,643.5 2115.5,566.9 543.7,94.7 520.7,171.4 		"/>
	</g>
	<g class="st2">
		
			<linearGradient id="SVGID_32_" gradientUnits="userSpaceOnUse" x1="4058.9592" y1="1626.208" x2="4058.9592" y2="-102.7005" gradientTransform="matrix(-0.2693 0.8966 -0.9577 -0.2877 1850.0145 -2785.1709)">
			<stop  offset="0" style="stop-color:#FFFFFF"/>
			<stop  offset="1" style="stop-color:#FFFFFF;stop-opacity:0"/>
		</linearGradient>
		<polygon class="st31" points="-785.6,336.1 -815.8,436.6 840,934 870.2,833.5 		"/>
		
			<linearGradient id="SVGID_33_" gradientUnits="userSpaceOnUse" x1="6843.1514" y1="1345.8923" x2="6843.1514" y2="-383.0162" gradientTransform="matrix(-0.1347 0.4483 -0.9577 -0.2877 1598.9172 -1949.2917)">
			<stop  offset="0" style="stop-color:#FFFFFF"/>
			<stop  offset="1" style="stop-color:#FFFFFF;stop-opacity:0"/>
		</linearGradient>
		<polygon class="st32" points="-604.1,706.3 -619.2,756.5 1036.6,1253.9 1051.7,1203.7 		"/>
		
			<linearGradient id="SVGID_34_" gradientUnits="userSpaceOnUse" x1="4291.8477" y1="1345.8947" x2="4291.8477" y2="-383.0141" gradientTransform="matrix(-0.2693 0.8966 -0.9577 -0.2877 1850.0145 -2785.1709)">
			<stop  offset="0" style="stop-color:#FFFFFF"/>
			<stop  offset="1" style="stop-color:#FFFFFF;stop-opacity:0"/>
		</linearGradient>
		<polygon class="st33" points="-579.9,625.6 -610,726 1045.8,1223.4 1075.9,1123 		"/>
		
			<linearGradient id="SVGID_35_" gradientUnits="userSpaceOnUse" x1="3011.9551" y1="1273.5521" x2="3011.9551" y2="-455.3566" gradientTransform="matrix(-0.5041 1.6781 -0.9577 -0.2877 2241.2534 -4087.5674)">
			<stop  offset="0" style="stop-color:#FFFFFF"/>
			<stop  offset="1" style="stop-color:#FFFFFF;stop-opacity:0"/>
		</linearGradient>
		<polygon class="st34" points="-468.6,506.5 -525,694.5 1130.8,1191.9 1187.2,1003.9 		"/>
		
			<linearGradient id="SVGID_36_" gradientUnits="userSpaceOnUse" x1="3546.384" y1="1219.0585" x2="3546.384" y2="-509.8499" gradientTransform="matrix(-0.3934 1.3095 -0.9577 -0.2877 2043.7634 -3430.1421)">
			<stop  offset="0" style="stop-color:#FFFFFF"/>
			<stop  offset="1" style="stop-color:#FFFFFF;stop-opacity:0"/>
		</linearGradient>
		<polygon class="st35" points="-496.7,789.7 -540.8,936.3 1115,1433.7 1159.1,1287 		"/>
		
			<linearGradient id="SVGID_37_" gradientUnits="userSpaceOnUse" x1="3624.5183" y1="1462.063" x2="3624.5183" y2="-266.8457" gradientTransform="matrix(-0.3934 1.3095 -0.9577 -0.2877 2043.7634 -3430.1421)">
			<stop  offset="0" style="stop-color:#FFFFFF"/>
			<stop  offset="1" style="stop-color:#FFFFFF;stop-opacity:0"/>
		</linearGradient>
		<polygon class="st36" points="-760.2,822.1 -804.2,968.7 851.6,1466.1 895.6,1319.4 		"/>
		
			<linearGradient id="SVGID_38_" gradientUnits="userSpaceOnUse" x1="5272.916" y1="1126.6627" x2="5272.916" y2="-602.3286" gradientTransform="matrix(-0.2056 0.6844 -0.9091 -0.2731 1652.4698 -2263.5986)">
			<stop  offset="0" style="stop-color:#FFFFFF"/>
			<stop  offset="1" style="stop-color:#FFFFFF;stop-opacity:0"/>
		</linearGradient>
		<polygon class="st37" points="-444.3,999.1 -467.3,1075.8 1104.5,1547.9 1127.5,1471.3 		"/>
	</g>
	<g class="st2">
		
			<linearGradient id="SVGID_39_" gradientUnits="userSpaceOnUse" x1="-871.3847" y1="2322.2129" x2="-871.3847" y2="593.3046" gradientTransform="matrix(0.2693 -0.8966 0.9577 0.2877 287.1579 395.8738)">
			<stop  offset="0" style="stop-color:#FFFFFF"/>
			<stop  offset="1" style="stop-color:#FFFFFF;stop-opacity:0"/>
		</linearGradient>
		<polygon class="st38" points="2261.4,1895.5 2291.6,1795.1 635.8,1297.7 605.6,1398.1 		"/>
		
			<linearGradient id="SVGID_40_" gradientUnits="userSpaceOnUse" x1="-3017.5366" y1="2041.8972" x2="-3017.5366" y2="312.9888" gradientTransform="matrix(0.1347 -0.4483 0.9577 0.2877 538.2551 -440.0053)">
			<stop  offset="0" style="stop-color:#FFFFFF"/>
			<stop  offset="1" style="stop-color:#FFFFFF;stop-opacity:0"/>
		</linearGradient>
		<polygon class="st39" points="2079.9,1525.3 2095,1475.1 439.2,977.7 424.1,1027.9 		"/>
		
			<linearGradient id="SVGID_41_" gradientUnits="userSpaceOnUse" x1="-638.4963" y1="2041.8995" x2="-638.4963" y2="312.991" gradientTransform="matrix(0.2693 -0.8966 0.9577 0.2877 287.1579 395.8738)">
			<stop  offset="0" style="stop-color:#FFFFFF"/>
			<stop  offset="1" style="stop-color:#FFFFFF;stop-opacity:0"/>
		</linearGradient>
		<polygon class="st40" points="2055.7,1606 2085.8,1505.6 430,1008.2 399.9,1108.6 		"/>
		
			<linearGradient id="SVGID_42_" gradientUnits="userSpaceOnUse" x1="377.6631" y1="1969.557" x2="377.6631" y2="240.6484" gradientTransform="matrix(0.5041 -1.6781 0.9577 0.2877 -104.0811 1698.2705)">
			<stop  offset="0" style="stop-color:#FFFFFF"/>
			<stop  offset="1" style="stop-color:#FFFFFF;stop-opacity:0"/>
		</linearGradient>
		<polygon class="st41" points="1944.3,1725.1 2000.8,1537.2 345,1039.8 288.5,1227.7 		"/>
		
			<linearGradient id="SVGID_43_" gradientUnits="userSpaceOnUse" x1="170.4141" y1="1915.0635" x2="170.4141" y2="186.1551" gradientTransform="matrix(0.3934 -1.3095 0.9577 0.2877 93.4089 1040.845)">
			<stop  offset="0" style="stop-color:#FFFFFF"/>
			<stop  offset="1" style="stop-color:#FFFFFF;stop-opacity:0"/>
		</linearGradient>
		<polygon class="st42" points="1972.5,1442 2016.6,1295.3 360.8,797.9 316.7,944.6 		"/>
		
			<linearGradient id="SVGID_44_" gradientUnits="userSpaceOnUse" x1="248.5483" y1="2158.0681" x2="248.5483" y2="429.1594" gradientTransform="matrix(0.3934 -1.3095 0.9577 0.2877 93.4089 1040.845)">
			<stop  offset="0" style="stop-color:#FFFFFF"/>
			<stop  offset="1" style="stop-color:#FFFFFF;stop-opacity:0"/>
		</linearGradient>
		<polygon class="st43" points="2236,1409.6 2280,1262.9 624.2,765.5 580.2,912.2 		"/>
		
			<linearGradient id="SVGID_45_" gradientUnits="userSpaceOnUse" x1="-1186.3909" y1="1859.8944" x2="-1186.3909" y2="130.9032" gradientTransform="matrix(0.2056 -0.6844 0.9091 0.2731 484.7025 -125.6983)">
			<stop  offset="0" style="stop-color:#FFFFFF"/>
			<stop  offset="1" style="stop-color:#FFFFFF;stop-opacity:0"/>
		</linearGradient>
		<polygon class="st44" points="1920.1,1232.5 1943.1,1155.8 371.3,683.7 348.3,760.3 		"/>
	</g>
</g>
</svg>
